# xmcd
#
# Track frame offsets:
#	150
#	14744
#	27738
#	42207
#	55657
#	71881
#	86515
#	102222
#	123163
#	137689
#	161375
#	178206
#	203021
#	221196
#	240637
#	255829
#
# Disc length: 3638 seconds
#
# Revision: 1
# Processed by: cddbd v1.5.2PL0 Copyright (c) Steve Scherf et al.
# Submitted via: audiograbber 1.83.01
#
DISCID=e00e3410
DTITLE=Samplper - The Texas Music Scene Live
DYEAR=1900
DGENRE=
TTITLE0=Micky And The Motorcars - Tonight We Ride
TTITLE1=Bruce Robison And Kelly Willis - Motor City Man
TTITLE2=Dale Watson - I Lie When I Drink
TTITLE3=Roger Creager - Shreveport to New Orleans
TTITLE4=Wade Bowen - Saturday Night
TTITLE5=The Band Of Heathens - Miss My Life
TTITLE6=Shinyribs - Song of Lime Juice and Despair
TTITLE7=Reckless Kelly - The Last Good bye
TTITLE8=William Clark Green - Hangin' Around
TTITLE9=Whiskey Myers - Dogwood
TTITLE10=Kevin Fowler - If I Could Make a Livin' Drinkin'
TTITLE11=Jack Ingram - Highr Than Willie and Jonesin' For Haggard
TTITLE12=Cody Cnada And The Departed - Inbetweener
TTITLE13=Will Sexton - Little Late For Loving Me Now
TTITLE14=Jason Boland - Electric Bill
TTITLE15=Asleep At The Wheel - Boogie Back To Texas
EXTD=
EXTT0=
EXTT1=
EXTT2=
EXTT3=
EXTT4=
EXTT5=
EXTT6=
EXTT7=
EXTT8=
EXTT9=
EXTT10=
EXTT11=
EXTT12=
EXTT13=
EXTT14=
EXTT15=
PLAYORDER=
